<svg
  width="23"
  height="22"
  viewBox="0 0 23 22"
  fill="none"
  xmlns="http://www.w3.org/2000/svg"
>
  <path
    d="M3.94262 0.616976C2.90678 0.616976 1.87115 0.616772 0.835318 0.617993C0.782621 0.617993 0.711001 0.596222 0.681499 0.646275C0.644672 0.708942 0.71446 0.754111 0.747014 0.798873C0.923214 1.03998 1.10389 1.27803 1.28294 1.51731C3.88077 4.99004 6.47798 8.46297 9.07825 11.9337C9.14764 12.0262 9.1395 12.0822 9.06564 12.162C7.7122 13.623 6.36221 15.0872 5.00857 16.548C3.90213 17.7424 2.79122 18.9326 1.68376 20.126C1.35517 20.48 1.03064 20.8377 0.705508 21.195C0.677023 21.2263 0.628598 21.259 0.650572 21.3081C0.672953 21.3585 0.72972 21.3396 0.771837 21.3398C1.28965 21.341 1.80767 21.3392 2.32549 21.3412C2.43292 21.3417 2.5139 21.3046 2.58735 21.2255C3.40059 20.3504 4.21831 19.4791 5.03075 18.603C5.88692 17.6795 6.73699 16.7501 7.59276 15.8259C8.36064 14.9966 9.13421 14.1728 9.89964 13.3414C9.99547 13.2375 10.0461 13.2391 10.1269 13.3477C10.5129 13.8674 10.9041 14.383 11.2917 14.9012C12.8362 16.9668 14.3817 19.0315 15.9205 21.1014C16.0528 21.2792 16.1924 21.3498 16.4166 21.3486C18.3436 21.3388 20.2708 21.3419 22.1978 21.341C22.3073 21.341 22.4169 21.3421 22.5264 21.3402C22.5647 21.3396 22.6139 21.3557 22.6367 21.3152C22.6642 21.2666 22.6169 21.233 22.5927 21.1982C22.5358 21.1164 22.4762 21.0369 22.4165 20.9571C19.5328 17.1015 16.6498 13.2456 13.763 9.39219C13.6871 9.29086 13.7038 9.23491 13.7815 9.15292C14.2786 8.6294 14.7514 8.08391 15.2469 7.55857C16.2099 6.53718 17.1552 5.4991 18.1092 4.46917C19.2527 3.23475 20.3978 2.00175 21.5418 0.767946C21.5714 0.736206 21.6202 0.7065 21.5996 0.656244C21.5789 0.605175 21.5221 0.619417 21.4798 0.619417C20.952 0.618196 20.4242 0.620842 19.8964 0.616772C19.7878 0.615958 19.7094 0.650547 19.636 0.730509C19.1172 1.29512 18.5947 1.85628 18.074 2.41906C16.3492 4.28259 14.6243 6.14612 12.902 8.01189C12.8261 8.09409 12.7898 8.09348 12.7237 8.00497C10.9192 5.5868 9.11203 3.17066 7.30873 0.751466C7.23406 0.651361 7.15552 0.614941 7.03486 0.615348C6.00412 0.618807 4.97337 0.617383 3.94262 0.617179V0.616976ZM4.96523 2.00786C5.39352 2.00786 5.82181 2.0101 6.2499 2.00664C6.40169 2.00542 6.50749 2.05974 6.60149 2.18548C9.9501 6.66984 13.302 11.1518 16.6532 15.6341C17.664 16.9859 18.6752 18.3375 19.684 19.6907C19.7375 19.7626 19.8525 19.8352 19.8047 19.9257C19.7644 20.002 19.6484 19.9349 19.5664 19.9349C18.73 19.9341 17.8935 19.9262 17.0571 19.931C16.8833 19.9321 16.7798 19.8702 16.6766 19.7314C15.1287 17.6498 13.575 15.5724 12.0216 13.4948C9.4217 10.0174 6.82102 6.54064 4.22055 3.06363C4.00284 2.77248 3.78351 2.48274 3.56601 2.19159C3.53447 2.14947 3.4773 2.11061 3.50375 2.04977C3.53162 1.98588 3.59917 2.00867 3.65045 2.00847C4.08871 2.00684 4.52697 2.00745 4.96503 2.00786H4.96523Z"
    fill="white"
  />
</svg>
